<?xml version="1.0" encoding="UTF-8"?>
<svg id="Capa_1" data-name="Capa 1" xmlns="http://www.w3.org/2000/svg" viewBox="0 0 512.15 458.6">
  <defs>
    <style>
      .cls-1, .cls-2, .cls-3 {
        stroke-width: 0px;
      }

      .cls-2 {
        fill: #570e25;
      }

      .cls-3, .cls-4 {
        fill: #fff;
      }

      .cls-4 {
        stroke: #200;
        stroke-miterlimit: 10;
        stroke-width: .65px;
      }
    </style>
  </defs>
  <rect class="cls-1" width="512.15" height="458.6"/>
  <g>
    <path class="cls-1" d="m117.59,440.19V163.22h276.97v276.97H117.59Zm240.1-145.23c-.35-56.47-45.59-101.14-101.77-101.28-56.03-.15-102.9,47.17-101.58,104.76,1.23,53.7,47.29,98.94,102.27,98.56,56.32-.39,101.43-45.93,101.08-102.04Z"/>
    <path class="cls-2" d="m357.69,294.96c.35,56.11-44.76,101.65-101.08,102.04-54.98.38-101.04-44.86-102.27-98.56-1.32-57.59,45.55-104.91,101.58-104.76,56.18.15,101.42,44.81,101.77,101.28Zm-102.3,21.45c.28-1.9.67-3.51.72-5.13.29-9.08,4.65-15.21,12.73-19.37,4.87-2.51,9.38-5.87,13.71-9.28,20.66-16.27,16.13-47.29-8.39-56.73-13.29-5.12-26.9-5.09-40.19.14-12.57,4.94-20.1,18.05-17.97,30.36,1.02,5.89,4.65,9.46,10.28,10.93,5.5,1.44,10.19-.35,13.69-4.68,3.69-4.57,2.59-11.94-1.54-18.26-1.68-2.57-3.63-7.34-2.49-8.85,2.13-2.79,6.32-5.18,9.87-5.51,10.02-.94,16.43,5.43,18.2,16.66,2.15,13.65-.32,26.45-6.84,38.57-4.5,8.35-8.18,16.9-7.78,26.75.16,4.05,1.4,5.74,6,4.42Zm-2,16.51c-9.97-.15-17.6,7.19-17.68,17-.08,9.84,7.45,17.57,17.18,17.63,9.41.07,17.23-7.48,17.45-16.85.23-9.84-7.21-17.64-16.96-17.79Z"/>
    <path class="cls-4" d="m255.39,316.42c-4.6,1.32-5.84-.37-6-4.42-.39-9.85,3.29-18.4,7.78-26.75,6.52-12.11,9-24.92,6.84-38.57-1.77-11.23-8.18-17.6-18.2-16.66-3.54.33-7.74,2.72-9.87,5.51-1.15,1.5.81,6.28,2.49,8.85,4.13,6.32,5.23,13.7,1.54,18.26-3.5,4.33-8.19,6.12-13.69,4.68-5.63-1.47-9.26-5.04-10.28-10.93-2.13-12.31,5.41-25.42,17.97-30.36,13.29-5.23,26.91-5.25,40.19-.14,24.52,9.44,29.04,40.46,8.39,56.73-4.33,3.41-8.84,6.77-13.71,9.28-8.07,4.16-12.44,10.29-12.73,19.37-.05,1.62-.45,3.23-.72,5.13Z"/>
    <path class="cls-3" d="m253.39,332.93c9.75.15,17.19,7.95,16.96,17.79-.22,9.36-8.04,16.91-17.45,16.85-9.73-.07-17.26-7.79-17.18-17.63.08-9.82,7.7-17.15,17.68-17Z"/>
  </g>
</svg>